HIERARCHY
ROOT Hips
{
	OFFSET 0.00000 0.00000 0.00000
	CHANNELS 6 Xposition Yposition Zposition Zrotation Yrotation Xrotation 
	JOINT LHipJoint
	{
		OFFSET 0 0 0
		CHANNELS 3 Zrotation Yrotation Xrotation
		JOINT LeftUpLeg
		{
			OFFSET 1.80322 -1.53100 0.99595
			CHANNELS 3 Zrotation Yrotation Xrotation
			JOINT LeftLeg
			{
				OFFSET 2.25177 -6.18669 0.00000
				CHANNELS 3 Zrotation Yrotation Xrotation
				JOINT LeftFoot
				{
					OFFSET 2.26601 -6.22582 0.00000
					CHANNELS 3 Zrotation Yrotation Xrotation
					JOINT LeftToeBase
					{
						OFFSET 0.23701 -0.65119 2.15848
						CHANNELS 3 Zrotation Yrotation Xrotation
						End Site
						{
							OFFSET 0.00000 -0.00000 1.12949
						}
					}
				}
			}
		}
	}
	JOINT RHipJoint
	{
		OFFSET 0 0 0
		CHANNELS 3 Zrotation Yrotation Xrotation
		JOINT RightUpLeg
		{
			OFFSET -1.93977 -1.53100 0.99595
			CHANNELS 3 Zrotation Yrotation Xrotation
			JOINT RightLeg
			{
				OFFSET -2.28036 -6.26523 0.00000
				CHANNELS 3 Zrotation Yrotation Xrotation
				JOINT RightFoot
				{
					OFFSET -2.25490 -6.19528 0.00000
					CHANNELS 3 Zrotation Yrotation Xrotation
					JOINT RightToeBase
					{
						OFFSET -0.28375 -0.77960 2.23137
						CHANNELS 3 Zrotation Yrotation Xrotation
						End Site
						{
							OFFSET -0.00000 -0.00000 1.17899
						}
					}
				}
			}
		}
	}
	JOINT LowerBack
	{
		OFFSET 0 0 0
		CHANNELS 3 Zrotation Yrotation Xrotation
		JOINT Spine
		{
			OFFSET -0.00088 2.12090 -0.02806
			CHANNELS 3 Zrotation Yrotation Xrotation
			JOINT Spine1
			{
				OFFSET -0.00286 2.09666 0.12974
				CHANNELS 3 Zrotation Yrotation Xrotation
				JOINT Neck
				{
					OFFSET 0 0 0
					CHANNELS 3 Zrotation Yrotation Xrotation
					JOINT Neck1
					{
						OFFSET 0.07328 1.83526 0.07290
						CHANNELS 3 Zrotation Yrotation Xrotation
						JOINT Head
						{
							OFFSET -0.06683 1.74974 -0.49542
							CHANNELS 3 Zrotation Yrotation Xrotation
							End Site
							{
								OFFSET -0.03398 1.85163 -0.17573
							}
						}
					}
				}
				JOINT LeftShoulder
				{
					OFFSET 0 0 0
					CHANNELS 3 Zrotation Yrotation Xrotation
					JOINT LeftArm
					{
						OFFSET 3.02113 1.18018 0.40602
						CHANNELS 3 Zrotation Yrotation Xrotation
						JOINT LeftForeArm
						{
							OFFSET 4.58538 -0.00000 -0.00000
							CHANNELS 3 Zrotation Yrotation Xrotation
							JOINT LeftHand
							{
								OFFSET 2.68935 -0.00000 -0.00000
								CHANNELS 3 Zrotation Yrotation Xrotation
								JOINT LeftFingerBase
								{
									OFFSET 0 0 0
									CHANNELS 3 Zrotation Yrotation Xrotation
									JOINT LeftHandIndex1
									{
										OFFSET 0.58506 -0.00000 -0.00000
										CHANNELS 3 Zrotation Yrotation Xrotation
										End Site
										{
											OFFSET 0.47169 -0.00000 -0.00000
										}
									}
								}
								JOINT LThumb
								{
									OFFSET 0 0 0
									CHANNELS 3 Zrotation Yrotation Xrotation
									End Site
									{
										OFFSET 0.47889 -0.00000 0.47889
									}
								}
							}
						}
					}
				}
				JOINT RightShoulder
				{
					OFFSET 0 0 0
					CHANNELS 3 Zrotation Yrotation Xrotation
					JOINT RightArm
					{
						OFFSET -2.95074 1.18843 0.31430
						CHANNELS 3 Zrotation Yrotation Xrotation
						JOINT RightForeArm
						{
							OFFSET -4.47450 -0.00000 -0.00000
							CHANNELS 3 Zrotation Yrotation Xrotation
							JOINT RightHand
							{
								OFFSET -2.93896 -0.00000 -0.00000
								CHANNELS 3 Zrotation Yrotation Xrotation
								JOINT RightFingerBase
								{
									OFFSET 0 0 0
									CHANNELS 3 Zrotation Yrotation Xrotation
									JOINT RightHandIndex1
									{
										OFFSET -0.40509 -0.00000 -0.00000
										CHANNELS 3 Zrotation Yrotation Xrotation
										End Site
										{
											OFFSET -0.32660 -0.00000 -0.00000
										}
									}
								}
								JOINT RThumb
								{
									OFFSET 0 0 0
									CHANNELS 3 Zrotation Yrotation Xrotation
									End Site
									{
										OFFSET -0.33158 -0.00000 0.33158
									}
								}
							}
						}
					}
				}
			}
		}
	}
}
MOTION
Frames: 15
Frame Time: .0083333
0.4448 14.9408 -18.532 0 0 0 0 0 0 -21 0 0 0 0 0 0 0 0 0 0 0 0 0 0 21 0 0 0 0 0 0 0 0 0 0 0 0 0 0 0 0 0 0 0 0 0 0 -16 0 0 21 0 0 11 0 0 0 -8 0 0 0 0 0 0 0 0 0 0 0 0 0 0 0 0 0 0 0 0 8 0 0 0 0 0 0 0 0 0 0 0 0 0 0 0 0 0
0.4448 14.9408 -18.5320 2.7228 -22.1950 8.4083 0.0000 0.0000 0.0000 -27.4879 -7.7548 -16.3113 3.9769 12.1296 36.1919 2.6440 6.7371 -33.6492 0.2971 3.5048 9.6876 0.0000 0.0000 0.0000 4.8483 22.7522 -34.5658 -5.2251 -13.6329 41.7863 -1.7484 -9.0959 -29.6728 -0.0000 -0.0087 0.0238 -2.6079 -1.2349 -3.7308 -0.5715 -1.6986 -6.4062 0.8724 -0.7649 -4.4727 5.2475 -1.7501 -15.6232 -2.9403 -3.3752 29.4389 -2.5277 -1.3794 12.1375 0.0000 0.0000 0.0000 -75.6018 24.5878 45.4607 131.6703 -52.2992 -95.1537 -0.0000 0.0000 -6.6941 13.0439 13.5729 3.1121 -7.1250 0.0000 -0.0000 -13.0659 43.5079 0.4900 0.0000 0.0000 0.0000 79.6911 -16.9028 16.6316 -17.7291 27.8089 -4.4221 0.0000 0.0000 3.8709 -10.8032 -4.7146 0.8985 7.1250 -0.0000 -0.0000 13.0459 -34.5407 3.4239
0.4087 14.9439 -18.4973 3.0052 -21.9663 8.2907 0.0000 0.0000 0.0000 -27.7321 -7.9115 -15.7608 3.8908 12.0137 35.7804 2.6277 6.8471 -33.6155 0.2835 3.4242 9.4621 0.0000 0.0000 0.0000 4.7673 22.3406 -34.5025 -5.2821 -13.6946 42.0277 -1.6626 -9.2657 -29.2267 -0.0034 0.3756 -1.0321 -2.6300 -1.2910 -3.8834 -0.6717 -1.7731 -6.4481 0.7780 -0.8044 -4.4311 5.3112 -1.5151 -15.7810 -2.8025 -3.1185 29.8819 -2.4668 -1.2297 12.3653 -0.0000 -0.0000 0.0000 -75.5688 24.7211 45.5819 131.6530 -52.3067 -95.1399 -0.0000 0.0000 -6.7913 12.8260 13.5862 3.0614 -7.1250 0.0000 -0.0000 -13.2628 43.4977 0.5011 -0.0000 -0.0000 0.0000 79.7796 -16.8592 16.3034 -17.6233 27.6721 -4.3729 0.0000 0.0000 4.1571 -10.8212 -4.5960 0.8775 7.1250 -0.0000 -0.0000 13.0111 -34.4240 3.4522
0.3624 14.9485 -18.4671 3.0690 -21.8114 8.2670 0.0000 0.0000 0.0000 -27.6880 -8.0115 -15.3924 3.8473 11.9544 35.5709 2.6262 6.9278 -33.6500 0.2687 3.3346 9.2118 0.0000 0.0000 0.0000 4.7102 22.8142 -34.2868 -5.2939 -13.7074 42.0776 -1.5853 -10.1269 -29.3291 -0.0161 0.8196 -2.2525 -2.6597 -1.3336 -3.9909 -0.6403 -1.8264 -6.4941 0.8249 -0.8291 -4.4155 5.2266 -1.5262 -15.7894 -2.8287 -3.1044 29.9799 -2.4635 -1.2347 12.4078 0.0000 -0.0000 0.0000 -75.6420 24.8583 45.6917 131.6543 -52.3061 -95.1410 -0.0000 0.0000 -6.8368 13.0342 13.5938 3.1144 -7.1250 0.0000 -0.0000 -13.0803 43.5276 0.4841 0.0000 -0.0000 0.0000 79.6586 -17.0178 16.7358 -17.7897 27.8870 -4.4504 0.0000 0.0000 3.7547 -10.9152 -4.9053 0.9447 7.1250 -0.0000 -0.0000 12.9879 -34.7350 3.3451
0.3128 14.9486 -18.4358 3.0046 -21.8057 8.2866 0.0000 0.0000 0.0000 -27.5420 -8.2394 -14.9607 3.8043 11.8954 35.3629 2.6327 7.2086 -33.8350 0.2624 3.2956 9.1028 0.0000 0.0000 0.0000 4.8426 23.1727 -34.1339 -5.3091 -13.7237 42.1416 -1.5845 -10.5059 -29.6038 -0.0351 1.2086 -3.3229 -2.5691 -1.3244 -4.1306 -0.5975 -1.8098 -6.5266 0.8155 -0.8244 -4.3725 5.0995 -1.5222 -15.8936 -2.7932 -3.0833 30.1727 -2.4332 -1.2311 12.5119 0.0000 0.0000 0.0000 -75.6874 24.9400 45.7863 131.5793 -52.3383 -95.0817 -0.0000 0.0000 -6.7911 12.8559 13.6034 3.0725 -7.1250 0.0000 -0.0000 -13.2411 43.5180 0.4934 0.0000 0.0000 0.0000 79.6933 -16.9156 16.5176 -17.7108 27.7853 -4.4136 0.0000 0.0000 3.9788 -10.8229 -4.6765 0.8930 7.1250 -0.0000 -0.0000 13.0234 -34.5038 3.4297
0.2656 14.9493 -18.4042 3.0196 -21.7175 8.2702 0.0000 0.0000 0.0000 -27.4727 -8.4306 -14.5584 3.7732 11.8523 35.2113 2.6432 7.3926 -33.9927 0.2522 3.2313 8.9234 0.0000 0.0000 0.0000 4.9523 23.2753 -33.9660 -5.3176 -13.7328 42.1774 -1.5488 -10.8298 -29.6126 -0.0546 1.5074 -4.1461 -2.5218 -1.3430 -4.2661 -0.5746 -1.8310 -6.5608 0.8096 -0.8371 -4.3320 5.0043 -1.4879 -15.9638 -2.7595 -3.0250 30.3675 -2.4029 -1.2078 12.6116 -0.0000 -0.0000 0.0000 -75.7394 25.0430 45.8909 131.5244 -52.3619 -95.0382 -0.0000 0.0000 -6.7692 12.8114 13.6084 3.0627 -7.1250 0.0000 -0.0000 -13.2818 43.5182 0.4950 -0.0000 -0.0000 0.0000 79.6754 -16.9063 16.5177 -17.7154 27.7912 -4.4157 0.0000 0.0000 3.9920 -10.8115 -4.6384 0.8848 7.1250 -0.0000 -0.0000 13.0261 -34.4656 3.4428
0.2171 14.9491 -18.3728 3.0020 -21.6460 8.2610 0.0000 0.0000 0.0000 -27.3708 -8.6433 -14.1604 3.7499 11.8199 35.0977 2.6588 7.5984 -34.1900 0.2427 3.1704 8.7535 0.0000 0.0000 0.0000 5.1396 23.2397 -33.8166 -5.3257 -13.7415 42.2115 -1.5234 -10.9855 -29.5640 -0.0712 1.7216 -4.7370 -2.4579 -1.3572 -4.4006 -0.5374 -1.8464 -6.5954 0.8092 -0.8473 -4.2928 4.9046 -1.4654 -16.0184 -2.7443 -2.9750 30.5458 -2.3791 -1.1917 12.7007 -0.0000 0.0000 0.0000 -75.8062 25.1450 45.9983 131.4560 -52.3911 -94.9840 -0.0000 0.0000 -6.7229 12.7932 13.6001 3.0564 -7.1250 0.0000 -0.0000 -13.2957 43.5080 0.4989 -0.0000 0.0000 0.0000 79.6438 -16.9000 16.5424 -17.7290 27.8087 -4.4221 0.0000 0.0000 3.9858 -10.8063 -4.6034 0.8777 7.1250 -0.0000 -0.0000 13.0245 -34.4306 3.4537
0.1679 14.9485 -18.3415 2.9644 -21.5837 8.2568 0.0000 0.0000 0.0000 -27.2517 -8.8714 -13.7500 3.7260 11.7866 34.9810 2.6746 7.8249 -34.4010 0.2340 3.1134 8.5945 0.0000 0.0000 0.0000 5.4040 22.9953 -33.7101 -5.3395 -13.7562 42.2694 -1.5055 -10.9382 -29.4089 -0.0838 1.8677 -5.1401 -2.3777 -1.3688 -4.5353 -0.4945 -1.8585 -6.6318 0.8057 -0.8564 -4.2556 4.8226 -1.4391 -16.0609 -2.7445 -2.9190 30.7216 -2.3630 -1.1733 12.7862 -0.0000 -0.0000 0.0000 -75.8805 25.2439 46.1093 131.3781 -52.4244 -94.9222 -0.0000 0.0000 -6.6618 12.7732 13.5777 3.0465 -7.1250 0.0000 -0.0000 -13.3074 43.4837 0.5075 -0.0000 -0.0000 0.0000 79.6114 -16.8899 16.5613 -17.7433 27.8272 -4.4288 0.0000 0.0000 3.9833 -10.8091 -4.5725 0.8720 7.1250 -0.0000 -0.0000 13.0169 -34.4001 3.4615
0.1181 14.9482 -18.3104 2.9149 -21.5210 8.2552 0.0000 0.0000 0.0000 -27.1222 -9.1158 -13.3338 3.7042 11.7561 34.8744 2.6918 8.0620 -34.6259 0.2251 3.0540 8.4292 0.0000 0.0000 0.0000 5.7277 22.5682 -33.6371 -5.3547 -13.7725 42.3335 -1.4916 -10.7297 -29.1558 -0.0935 1.9718 -5.4276 -2.2895 -1.3804 -4.6635 -0.4465 -1.8711 -6.6731 0.8031 -0.8658 -4.2275 4.7645 -1.4144 -16.0873 -2.7700 -2.8630 30.8884 -2.3601 -1.1560 12.8639 -0.0000 -0.0000 0.0000 -75.9637 25.3442 46.2266 131.2973 -52.4587 -94.8582 -0.0000 0.0000 -6.5945 12.7615 13.5437 3.0361 -7.1250 0.0000 -0.0000 -13.3085 43.4487 0.5193 -0.0000 -0.0000 0.0000 79.5710 -16.8921 16.6064 -17.7706 27.8624 -4.4415 0.0000 0.0000 3.9472 -10.8194 -4.5612 0.8707 7.1250 -0.0000 -0.0000 13.0067 -34.3894 3.4621
0.0675 14.9484 -18.2796 2.8419 -21.4660 8.2613 0.0000 0.0000 0.0000 -26.9695 -9.3783 -12.9102 3.6831 11.7263 34.7705 2.7095 8.3152 -34.8632 0.2169 2.9985 8.2745 0.0000 0.0000 0.0000 6.0995 22.0641 -33.5865 -5.3715 -13.7903 42.4040 -1.4817 -10.4317 -28.8624 -0.1014 2.0536 -5.6538 -2.1877 -1.3878 -4.7886 -0.3925 -1.8786 -6.7133 0.7992 -0.8732 -4.2003 4.7345 -1.3918 -16.1112 -2.8173 -2.8110 31.0452 -2.3708 -1.1404 12.9360 0.0000 0.0000 0.0000 -76.0514 25.4320 46.3511 131.2192 -52.4918 -94.7962 -0.0000 0.0000 -6.5346 12.7333 13.5017 3.0200 -7.1250 0.0000 -0.0000 -13.3220 43.4039 0.5348 0.0000 0.0000 0.0000 79.5354 -16.8862 16.6506 -17.8029 27.9040 -4.4566 0.0000 0.0000 3.8951 -10.8335 -4.5680 0.8732 7.1250 -0.0000 -0.0000 12.9964 -34.3967 3.4569
0.0164 14.9490 -18.2483 2.7462 -21.4312 8.2625 0.0000 0.0000 0.0000 -26.8068 -9.6656 -12.4549 3.6619 11.6964 34.6663 2.7290 8.6039 -35.1310 0.2100 2.9502 8.1402 0.0000 0.0000 0.0000 6.5118 21.5223 -33.5417 -5.3895 -13.8094 42.4792 -1.4779 -10.0454 -28.5459 -0.1091 2.1299 -5.8648 -2.0922 -1.4066 -4.8885 -0.2964 -1.9013 -6.7699 0.8431 -0.8863 -4.2026 4.6699 -1.3569 -16.1038 -2.8830 -2.7229 31.2081 -2.3768 -1.1158 13.0060 -0.0000 0.0000 0.0000 -76.2345 25.5723 46.4379 131.1463 -52.5226 -94.7384 -0.0000 0.0000 -6.4593 12.7486 13.4554 3.0136 -7.1250 0.0000 -0.0000 -13.2959 43.3598 0.5485 -0.0000 0.0000 0.0000 79.4134 -16.9036 16.7946 -17.8430 27.9556 -4.4754 0.0000 0.0000 3.7942 -10.8546 -4.5844 0.8781 7.1250 -0.0000 -0.0000 12.9822 -34.4140 3.4474
-0.0353 14.9506 -18.2177 2.6297 -21.3950 8.2681 0.0000 0.0000 0.0000 -26.6231 -9.9615 -11.9958 3.6418 11.6678 34.5668 2.7489 8.8957 -35.4038 0.2034 2.9042 8.0122 0.0000 0.0000 0.0000 6.9504 21.0014 -33.4936 -5.4070 -13.8280 42.5528 -1.4800 -9.6149 -28.2420 -0.1131 2.1687 -5.9720 -1.9793 -1.4221 -4.9831 -0.2016 -1.9200 -6.8190 0.8758 -0.8984 -4.2006 4.6180 -1.3258 -16.1059 -2.9444 -2.6457 31.3655 -2.3851 -1.0941 13.0755 0.0000 -0.0000 0.0000 -76.4069 25.6856 46.5423 131.0868 -52.5477 -94.6912 -0.0000 0.0000 -6.4240 12.7823 13.4267 3.0155 -7.1250 0.0000 -0.0000 -13.2583 43.3348 0.5553 0.0000 -0.0000 0.0000 79.3133 -16.8998 16.9191 -17.8823 28.0062 -4.4938 0.0000 0.0000 3.6926 -10.8639 -4.5974 0.8813 7.1250 -0.0000 -0.0000 12.9769 -34.4273 3.4416
-0.0876 14.9526 -18.1874 2.4852 -21.3638 8.2757 0.0000 0.0000 0.0000 -26.4155 -10.2665 -11.5288 3.6238 11.6422 34.4776 2.7707 9.1946 -35.6916 0.1977 2.8630 7.8977 0.0000 0.0000 0.0000 7.4225 20.5192 -33.4304 -5.4233 -13.8452 42.6208 -1.4857 -9.1556 -27.9500 -0.1126 2.1637 -5.9583 -1.8442 -1.4348 -5.0690 -0.1001 -1.9356 -6.8641 0.9035 -0.9098 -4.1998 4.5688 -1.2949 -16.1079 -3.0027 -2.5703 31.5219 -2.3929 -1.0726 13.1447 -0.0000 -0.0000 0.0000 -76.5839 25.7870 46.6572 131.0368 -52.5687 -94.6515 -0.0000 0.0000 -6.4164 12.8359 13.4085 3.0246 -7.1250 0.0000 -0.0000 -13.2060 43.3224 0.5571 -0.0000 -0.0000 0.0000 79.2158 -16.8859 17.0432 -17.9222 28.0574 -4.5126 0.0000 0.0000 3.5910 -10.8715 -4.6167 0.8856 7.1250 -0.0000 -0.0000 12.9740 -34.4468 3.4345
-0.1403 14.9551 -18.1581 2.3164 -21.3317 8.2914 0.0000 0.0000 0.0000 -26.1800 -10.5610 -11.0784 3.6094 11.6217 34.4065 2.7940 9.4774 -35.9792 0.1922 2.8232 7.7870 0.0000 0.0000 0.0000 7.9192 20.0924 -33.3486 -5.4371 -13.8597 42.6783 -1.4930 -8.6984 -27.6777 -0.1061 2.0999 -5.7818 -1.6818 -1.4413 -5.1529 -0.0060 -1.9437 -6.9021 0.9082 -0.9189 -4.1940 4.5355 -1.2689 -16.1141 -3.0504 -2.5105 31.6730 -2.4016 -1.0548 13.2123 -0.0000 -0.0000 0.0000 -76.7313 25.8560 46.7958 130.9948 -52.5863 -94.6181 -0.0000 0.0000 -6.4432 12.9006 13.3965 3.0376 -7.1250 0.0000 -0.0000 -13.1454 43.3173 0.5561 -0.0000 -0.0000 0.0000 79.1513 -16.8541 17.1377 -17.9609 28.1071 -4.5308 0.0000 0.0000 3.5067 -10.8747 -4.6420 0.8907 7.1250 -0.0000 -0.0000 12.9757 -34.4720 3.4268
-0.1936 14.9576 -18.1299 2.1295 -21.2927 8.3147 0.0000 0.0000 0.0000 -25.9202 -10.8454 -10.6496 3.5995 11.6075 34.3572 2.8195 9.7362 -36.2641 0.1866 2.7820 7.6725 0.0000 0.0000 0.0000 8.4339 19.7202 -33.2433 -5.4481 -13.8713 42.7242 -1.5001 -8.2751 -27.4357 -0.0952 1.9898 -5.4774 -1.4950 -1.4400 -5.2317 0.0747 -1.9427 -6.9351 0.8855 -0.9250 -4.1873 4.5290 -1.2509 -16.1324 -3.0932 -2.4729 31.8243 -2.4168 -1.0429 13.2816 0.0000 -0.0000 0.0000 -76.8342 25.8902 46.9660 130.9623 -52.6000 -94.5923 -0.0000 0.0000 -6.4937 12.9644 13.3919 3.0521 -7.1250 0.0000 -0.0000 -13.0878 43.3195 0.5529 0.0000 -0.0000 0.0000 79.1320 -16.8083 17.1807 -17.9973 28.1537 -4.5480 0.0000 0.0000 3.4539 -10.8759 -4.6657 0.8954 7.1250 -0.0000 -0.0000 12.9788 -34.4955 3.4201
